ply
format ascii 1.0
element vertex 767
property float x
property float y
property float z
property float nx
property float ny
property float nz
element face 292
property list uchar int vertex_indices
end_header
370.99979 -20.766661 -41.25 0.42827749 -0.9036473 0
370.99979 -20.766661 -25 0.42827749 -0.9036473 0
356.92169 -27.43889 -25 0.42827749 -0.9036473 0
356.92169 -27.43889 -41.25 0.34621391 -0.93815571 0
356.92169 -27.43889 -25 0.34621391 -0.93815571 0
342.306 -32.832642 -25 0.34621391 -0.93815571 0
342.306 -32.832642 -41.25 0.2614072 -0.96522862 0
342.306 -32.832642 -25 0.2614072 -0.96522862 0
327.26849 -36.905151 -25 0.2614072 -0.96522862 0
327.26849 -36.905151 -41.25 0.174528 -0.98465228 0
327.26849 -36.905151 -25 0.174528 -0.98465228 0
311.92841 -39.624161 -25 0.174528 -0.98465228 0
311.92841 -39.624161 -41.25 0.174528 -0.98465228 0
327.26849 -36.905151 -25 0.2614072 -0.96522868 0
327.26849 -36.905151 -41.25 0.2614072 -0.96522868 0
342.306 -32.832642 -41.25 0.2614072 -0.96522868 0
342.306 -32.832642 -25 0.3462151 -0.93815517 0
342.306 -32.832642 -41.25 0.3462151 -0.93815517 0
356.92169 -27.43889 -41.25 0.3462151 -0.93815517 0
356.92169 -27.43889 -25 0.42827901 -0.90364671 0
356.92169 -27.43889 -41.25 0.42827901 -0.90364671 0
370.99979 -20.766661 -41.25 0.42827901 -0.90364671 0
370.99979 20.766661 -41.25 0.53500891 0.84484643 0
370.99979 20.766661 -25 0.53500891 0.84484643 0
374.0704 18.822201 -25 0.53500891 0.84484643 0
374.0704 18.822201 -41.25 0.65887988 0.75224823 0
374.0704 18.822201 -25 0.65887988 0.75224823 0
376.80441 16.42753 -25 0.65887988 0.75224823 0
376.80441 16.42753 -41.25 0.76698941 0.6416598 0
376.80441 16.42753 -25 0.76698941 0.6416598 0
379.13641 13.63993 -25 0.76698941 0.6416598 0
379.13641 13.63993 -41.25 0.85676032 0.515715 0
379.13641 13.63993 -25 0.85676032 0.515715 0
381.0108 10.52608 -25 0.85676032 0.515715 0
381.0108 10.52608 -41.25 0.92603117 0.3774468 0
381.0108 10.52608 -25 0.92603117 0.3774468 0
382.38251 7.1604562 -25 0.92603117 0.3774468 0
382.38251 7.1604562 -41.25 0.97315848 0.23013631 0
382.38251 7.1604562 -25 0.97315848 0.23013631 0
383.21899 3.623564 -25 0.97315848 0.23013631 0
383.21899 3.623564 -41.25 0.99700528 0.077334881 0
383.21899 3.623564 -25 0.99700528 0.077334881 0
383.5 0 -25 0.99700528 0.077334881 0
383.5 0 -41.25 0.99700648 -0.077318482 0
383.5 0 -25 0.99700648 -0.077318482 0
383.21899 -3.623564 -25 0.99700648 -0.077318482 0
383.21899 -3.623564 -41.25 0.97315848 -0.23013631 0
383.21899 -3.623564 -25 0.97315848 -0.23013631 0
382.38251 -7.1604562 -25 0.97315848 -0.23013631 0
382.38251 -7.1604562 -41.25 0.92603707 -0.3774327 0
382.38251 -7.1604562 -25 0.92603707 -0.3774327 0
381.0108 -10.52608 -25 0.92603707 -0.3774327 0
381.0108 -10.52608 -41.25 0.85676032 -0.515715 0
381.0108 -10.52608 -25 0.85676032 -0.515715 0
379.13641 -13.63993 -25 0.85676032 -0.515715 0
379.13641 -13.63993 -41.25 0.76699752 -0.64165002 0
379.13641 -13.63993 -25 0.76699752 -0.64165002 0
376.80441 -16.42753 -25 0.76699752 -0.64165002 0
376.80441 -16.42753 -41.25 0.65887988 -0.75224823 0
376.80441 -16.42753 -25 0.65887988 -0.75224823 0
374.0704 -18.822201 -25 0.65887988 -0.75224823 0
374.0704 -18.822201 -41.25 0.53501642 -0.84484172 0
374.0704 -18.822201 -25 0.53501642 -0.84484172 0
370.99979 -20.766661 -25 0.53501642 -0.84484172 0
370.99979 -20.766661 -25 0.53500891 -0.84484643 0
370.99979 -20.766661 -41.25 0.53500891 -0.84484643 0
374.0704 -18.822201 -41.25 0.53500891 -0.84484643 0
374.0704 -18.822201 -25 0.65887982 -0.75224841 0
374.0704 -18.822201 -41.25 0.65887982 -0.75224841 0
376.80441 -16.42753 -41.25 0.65887982 -0.75224841 0
376.80441 -16.42753 -25 0.76698941 -0.6416598 0
376.80441 -16.42753 -41.25 0.76698941 -0.6416598 0
379.13641 -13.63993 -41.25 0.76698941 -0.6416598 0
379.13641 -13.63993 -41.25 0.85676032 -0.515715 0
381.0108 -10.52608 -25 0.92603117 -0.3774468 0
381.0108 -10.52608 -41.25 0.92603117 -0.3774468 0
382.38251 -7.1604562 -41.25 0.92603117 -0.3774468 0
382.38251 -7.1604562 -41.25 0.97315848 -0.23013631 0
383.21899 -3.623564 -25 0.99700522 -0.077334881 0
383.21899 -3.623564 -41.25 0.99700522 -0.077334881 0
383.5 0 -41.25 0.99700522 -0.077334881 0
383.5 0 -25 0.99700648 0.077318422 0
383.5 0 -41.25 0.99700648 0.077318422 0
383.21899 3.623564 -41.25 0.99700648 0.077318422 0
383.21899 3.623564 -41.25 0.97315848 0.23013631 0
382.38251 7.1604562 -25 0.92603707 0.3774327 0
382.38251 7.1604562 -41.25 0.92603707 0.3774327 0
381.0108 10.52608 -41.25 0.92603707 0.3774327 0
381.0108 10.52608 -41.25 0.85676032 0.515715 0
379.13641 13.63993 -25 0.76699752 0.64165002 0
379.13641 13.63993 -41.25 0.76699752 0.64165002 0
376.80441 16.42753 -41.25 0.76699752 0.64165002 0
376.80441 16.42753 -25 0.65887982 0.75224841 0
376.80441 16.42753 -41.25 0.65887982 0.75224841 0
374.0704 18.822201 -41.25 0.65887982 0.75224841 0
374.0704 18.822201 -25 0.53501642 0.84484172 0
374.0704 18.822201 -41.25 0.53501642 0.84484172 0
370.99979 20.766661 -41.25 0.53501642 0.84484172 0
382.38251 -7.1604562 -41.25 0 0 -1
379.13641 -13.63993 -41.25 0 0 -1
376.80441 -16.42753 -41.25 0 0 -1
370.99979 -20.766661 -41.25 3.1863699e-06 0 -1
381.0108 10.52608 -41.25 3.1863699e-06 0 -1
382.38251 7.1604562 -41.25 3.1863699e-06 0 -1
382.38251 -7.1604562 -41.25 1.49837e-05 0 -1
381.0108 -10.52608 -41.25 1.49837e-05 0 -1
379.13641 -13.63993 -41.25 1.49837e-05 0 -1
374.0704 -18.822201 -41.25 2.1134599e-06 0 -1
383.5 0 -41.25 2.1134599e-06 0 -1
383.21899 -3.623564 -41.25 2.1134599e-06 0 -1
382.38251 7.1604562 -41.25 0 0 -1
383.21899 3.623564 -41.25 0 0 -1
370.99979 -20.766661 -41.25 0 0 -1
376.80441 16.42753 -41.25 0 0 -1
379.13641 13.63993 -41.25 0 0 -1
10.4421 -79.31559 -41.25 4.0988601e-07 0 -1
-50.670471 61.907211 -41.25 4.0988601e-07 0 -1
-41.799881 68.211212 -41.25 4.0988601e-07 0 -1
383.21899 -3.623564 -41.25 0 0 -1
374.0704 -18.822201 -41.25 0 0 -1
381.0108 10.52608 -41.25 0 0 -1
370.99979 -20.766661 -41.25 -3.58948e-07 0 -1
370.99979 20.766661 -41.25 -3.58948e-07 0 -1
374.0704 18.822201 -41.25 -3.58948e-07 0 -1
10.4421 -79.31559 -41.25 -1.93692e-07 0 -1
-58.603432 54.457668 -41.25 -1.93692e-07 0 -1
-50.670471 61.907211 -41.25 -1.93692e-07 0 -1
10.4421 -79.31559 -41.25 2.5918899e-07 0 -1
-71.089378 36.691959 -41.25 2.5918899e-07 0 -1
-65.451981 46.00042 -41.25 2.5918899e-07 0 -1
10.4421 -79.31559 -41.25 -4.03489e-07 0 -1
-78.337822 16.22299 -41.25 -4.03489e-07 0 -1
-75.411324 26.70455 -41.25 -4.03489e-07 0 -1
10.4421 -79.31559 -41.25 0 0 -1
-79.814751 -5.4412231 -41.25 0 0 -1
-79.814751 5.4412231 -41.25 0 0 -1
-58.603432 -54.457668 -41.25 0 0 -1
-65.451981 -46.00042 -41.25 0 0 -1
-71.089378 -36.691959 -41.25 0 0 -1
-75.411324 -26.70455 -41.25 -3.9049499e-07 0 -1
-41.799881 -68.211212 -41.25 -3.9049499e-07 0 -1
-50.670471 -61.907211 -41.25 -3.9049499e-07 0 -1
-79.814751 -5.4412231 -41.25 1.32968e-07 0 -1
-0.41887709 -79.998901 -41.25 1.32968e-07 0 -1
-11.2721 -79.201889 -41.25 1.32968e-07 0 -1
374.0704 18.822201 -41.25 0 0 -1
10.4421 -79.31559 -41.25 4.61529e-07 0 -1
-32.155819 73.253014 -41.25 4.61529e-07 0 -1
-21.91674 76.939308 -41.25 4.61529e-07 0 -1
-65.451981 46.00042 -41.25 -6.5100301e-07 0 -1
-58.603432 54.457668 -41.25 -6.5100301e-07 0 -1
10.4421 -79.31559 -41.25 -6.5100301e-07 0 -1
-79.814751 5.4412231 -41.25 -4.4457599e-07 0 -1
-78.337822 16.22299 -41.25 -4.4457599e-07 0 -1
10.4421 -79.31559 -41.25 -4.4457599e-07 0 -1
-41.799881 -68.211212 -41.25 0 0 -1
-75.411324 -26.70455 -41.25 0 0 -1
-78.337822 -16.22299 -41.25 0 0 -1
-50.670471 -61.907211 -41.25 0 0 -1
-79.814751 -5.4412231 -41.25 5.8840902e-07 0 -1
-21.91674 -76.939308 -41.25 5.8840902e-07 0 -1
-32.155819 -73.253014 -41.25 5.8840902e-07 0 -1
-79.814751 -5.4412231 -41.25 -1.72187e-07 0 -1
10.4421 -79.31559 -41.25 -1.72187e-07 0 -1
-0.41887709 -79.998901 -41.25 -1.72187e-07 0 -1
383.5 0 -41.25 0 0 -1
-21.91674 76.939308 -41.25 0 0 -1
-11.2721 79.201889 -41.25 0 0 -1
10.4421 -79.31559 -41.25 0 0 -1
-75.411324 26.70455 -41.25 7.4225699e-07 0 -1
-71.089378 36.691959 -41.25 7.4225699e-07 0 -1
10.4421 -79.31559 -41.25 7.4225699e-07 0 -1
-11.2721 -79.201889 -41.25 0 0 -1
-21.91674 -76.939308 -41.25 0 0 -1
-79.814751 -5.4412231 -41.25 0 0 -1
370.99979 -20.766661 -41.25 -2.08771e-07 0 -1
356.92169 27.43889 -41.25 -2.08771e-07 0 -1
370.99979 20.766661 -41.25 -2.08771e-07 0 -1
342.306 32.832642 -41.25 4.4373999e-07 0 -1
356.92169 27.43889 -41.25 4.4373999e-07 0 -1
327.26849 -36.905151 -41.25 4.4373999e-07 0 -1
-41.799881 68.211212 -41.25 -5.7916702e-07 0 -1
-32.155819 73.253014 -41.25 -5.7916702e-07 0 -1
10.4421 -79.31559 -41.25 -5.7916702e-07 0 -1
-32.155819 -73.253014 -41.25 -1.18029e-06 0 -1
-41.799881 -68.211212 -41.25 -1.18029e-06 0 -1
-79.814751 -5.4412231 -41.25 -1.18029e-06 0 -1
10.4421 79.31559 -41.25 0 0 -1
311.92841 39.624161 -41.25 0 0 -1
311.92841 -39.624161 -41.25 0 0 -1
356.92169 27.43889 -41.25 -1.52192e-07 0 -1
356.92169 -27.43889 -41.25 -1.52192e-07 0 -1
342.306 -32.832642 -41.25 -1.52192e-07 0 -1
311.92841 -39.624161 -41.25 -2.26377e-07 0 -1
327.26849 36.905151 -41.25 -2.26377e-07 0 -1
342.306 32.832642 -41.25 -2.26377e-07 0 -1
10.4421 -79.31559 -41.25 0 0 -1
-0.41887709 79.998901 -41.25 0 0 -1
10.4421 79.31559 -41.25 0 0 -1
370.99979 -20.766661 -41.25 6.3201799e-07 0 -1
356.92169 -27.43889 -41.25 6.3201799e-07 0 -1
356.92169 27.43889 -41.25 6.3201799e-07 0 -1
311.92841 -39.624161 -41.25 0 0 -1
311.92841 39.624161 -41.25 0 0 -1
327.26849 36.905151 -41.25 0 0 -1
327.26849 -36.905151 -41.25 0 0 -1
342.306 32.832642 -41.25 0 0 -1
342.306 -32.832642 -41.25 -5.7661299e-07 0 -1
327.26849 -36.905151 -41.25 -5.7661299e-07 0 -1
356.92169 27.43889 -41.25 -5.7661299e-07 0 -1
-11.2721 79.201889 -41.25 5.6197501e-07 0 -1
-0.41887709 79.998901 -41.25 5.6197501e-07 0 -1
10.4421 -79.31559 -41.25 5.6197501e-07 0 -1
311.92841 39.624161 41.25 0.1305262 0.991445 0
311.92841 39.624161 -41.25 0.1305262 0.991445 0
10.4421 79.31559 -41.25 0.1305262 0.991445 0
10.4421 79.31559 -41.25 0.1305261 0.99144489 0
10.4421 79.31559 41.25 0.1305261 0.99144489 0
311.92841 39.624161 41.25 0.1305261 0.99144489 0
10.4421 -79.31559 -41.25 0.062790208 -0.99802691 0
10.4421 -79.31559 41.25 0.062790208 -0.99802691 0
-0.41887709 -79.998901 41.25 0.062790208 -0.99802691 0
-0.41887709 -79.998901 -41.25 -0.073238313 -0.99731451 0
-0.41887709 -79.998901 41.25 -0.073238313 -0.99731451 0
-11.2721 -79.201889 41.25 -0.073238313 -0.99731451 0
-11.2721 -79.201889 -41.25 -0.2079111 -0.9781478 0
-11.2721 -79.201889 41.25 -0.2079111 -0.9781478 0
-21.91674 -76.939308 41.25 -0.2079111 -0.9781478 0
-21.91674 -76.939308 -41.25 -0.3387382 -0.94088072 0
-21.91674 -76.939308 41.25 -0.3387382 -0.94088072 0
-32.155819 -73.253014 41.25 -0.3387382 -0.94088072 0
-32.155819 -73.253014 -41.25 -0.4632962 -0.88620359 0
-32.155819 -73.253014 41.25 -0.4632962 -0.88620359 0
-41.799881 -68.211212 41.25 -0.4632962 -0.88620359 0
-41.799881 -68.211212 -41.25 -0.57928127 -0.81512779 0
-41.799881 -68.211212 41.25 -0.57928127 -0.81512779 0
-50.670471 -61.907211 41.25 -0.57928127 -0.81512779 0
-50.670471 -61.907211 -41.25 -0.68454742 -0.72896838 0
-50.670471 -61.907211 41.25 -0.68454742 -0.72896838 0
-58.603432 -54.457668 41.25 -0.68454742 -0.72896838 0
-58.603432 -54.457668 -41.25 -0.7771461 -0.62932038 0
-58.603432 -54.457668 41.25 -0.7771461 -0.62932038 0
-65.451981 -46.00042 41.25 -0.7771461 -0.62932038 0
-65.451981 -46.00042 -41.25 -0.8553651 -0.5180257 0
-65.451981 -46.00042 41.25 -0.8553651 -0.5180257 0
-71.089378 -36.691959 41.25 -0.8553651 -0.5180257 0
-71.089378 -36.691959 -41.25 -0.91775447 -0.3971484 0
-71.089378 -36.691959 41.25 -0.91775447 -0.3971484 0
-75.411324 -26.70455 41.25 -0.91775447 -0.3971484 0
-75.411324 -26.70455 -41.25 -0.96316242 -0.26892069 0
-75.411324 -26.70455 41.25 -0.96316242 -0.26892069 0
-78.337822 -16.22299 41.25 -0.96316242 -0.26892069 0
-78.337822 -16.22299 -41.25 -0.99074793 -0.1357156 0
-78.337822 -16.22299 41.25 -0.99074793 -0.1357156 0
-79.814751 -5.4412231 41.25 -0.99074793 -0.1357156 0
-79.814751 -5.4412231 -41.25 -1 0 0
-79.814751 -5.4412231 41.25 -1 0 0
-79.814751 5.4412231 41.25 -1 0 0
-79.814751 5.4412231 -41.25 -0.99074769 0.1357166 0
-79.814751 5.4412231 41.25 -0.99074769 0.1357166 0
-78.337822 16.22299 41.25 -0.99074769 0.1357166 0
-78.337822 16.22299 -41.25 -0.96316302 0.2689186 0
-78.337822 16.22299 41.25 -0.96316302 0.2689186 0
-75.411324 26.70455 41.25 -0.96316302 0.2689186 0
-75.411324 26.70455 -41.25 -0.91775483 0.39714739 0
-75.411324 26.70455 41.25 -0.91775483 0.39714739 0
-71.089378 36.691959 41.25 -0.91775483 0.39714739 0
-71.089378 36.691959 -41.25 -0.85536408 0.51802731 0
-71.089378 36.691959 41.25 -0.85536408 0.51802731 0
-65.451981 46.00042 41.25 -0.85536408 0.51802731 0
-65.451981 46.00042 -41.25 -0.7771455 0.62932098 0
-65.451981 46.00042 41.25 -0.7771455 0.62932098 0
-58.603432 54.457668 41.25 -0.7771455 0.62932098 0
-58.603432 54.457668 -41.25 -0.68454689 0.72896892 0
-58.603432 54.457668 41.25 -0.68454689 0.72896892 0
-50.670471 61.907211 41.25 -0.68454689 0.72896892 0
-50.670471 61.907211 -41.25 -0.57928097 0.81512803 0
-50.670471 61.907211 41.25 -0.57928097 0.81512803 0
-41.799881 68.211212 41.25 -0.57928097 0.81512803 0
-41.799881 68.211212 -41.25 -0.463296 0.88620371 0
-41.799881 68.211212 41.25 -0.463296 0.88620371 0
-32.155819 73.253014 41.25 -0.463296 0.88620371 0
-32.155819 73.253014 -41.25 -0.33873829 0.94088072 0
-32.155819 73.253014 41.25 -0.33873829 0.94088072 0
-21.91674 76.939308 41.25 -0.33873829 0.94088072 0
-21.91674 76.939308 -41.25 -0.2079111 0.9781478 0
-21.91674 76.939308 41.25 -0.2079111 0.9781478 0
-11.2721 79.201889 41.25 -0.2079111 0.9781478 0
-11.2721 79.201889 -41.25 -0.073238313 0.99731451 0
-11.2721 79.201889 41.25 -0.073238313 0.99731451 0
-0.41887709 79.998901 41.25 -0.073238313 0.99731451 0
-0.41887709 79.998901 -41.25 0.062790208 0.99802691 0
-0.41887709 79.998901 41.25 0.062790208 0.99802691 0
10.4421 79.31559 41.25 0.062790208 0.99802691 0
10.4421 79.31559 41.25 0.062790208 0.99802691 0
10.4421 79.31559 -41.25 0.062790208 0.99802691 0
-0.41887709 79.998901 -41.25 0.062790208 0.99802691 0
-0.41887709 79.998901 41.25 -0.073238313 0.99731451 0
-0.41887709 79.998901 -41.25 -0.073238313 0.99731451 0
-11.2721 79.201889 -41.25 -0.073238313 0.99731451 0
-11.2721 79.201889 -41.25 -0.2079111 0.9781478 0
-21.91674 76.939308 41.25 -0.3387382 0.94088072 0
-21.91674 76.939308 -41.25 -0.3387382 0.94088072 0
-32.155819 73.253014 -41.25 -0.3387382 0.94088072 0
-32.155819 73.253014 41.25 -0.4632962 0.88620359 0
-32.155819 73.253014 -41.25 -0.4632962 0.88620359 0
-41.799881 68.211212 -41.25 -0.4632962 0.88620359 0
-41.799881 68.211212 41.25 -0.57928127 0.81512779 0
-41.799881 68.211212 -41.25 -0.57928127 0.81512779 0
-50.670471 61.907211 -41.25 -0.57928127 0.81512779 0
-50.670471 61.907211 41.25 -0.68454742 0.72896838 0
-50.670471 61.907211 -41.25 -0.68454742 0.72896838 0
-58.603432 54.457668 -41.25 -0.68454742 0.72896838 0
-58.603432 54.457668 41.25 -0.7771461 0.62932038 0
-58.603432 54.457668 -41.25 -0.7771461 0.62932038 0
-65.451981 46.00042 -41.25 -0.7771461 0.62932038 0
-65.451981 46.00042 41.25 -0.8553651 0.5180257 0
-65.451981 46.00042 -41.25 -0.8553651 0.5180257 0
-71.089378 36.691959 -41.25 -0.8553651 0.5180257 0
-71.089378 36.691959 41.25 -0.91775447 0.3971484 0
-71.089378 36.691959 -41.25 -0.91775447 0.3971484 0
-75.411324 26.70455 -41.25 -0.91775447 0.3971484 0
-75.411324 26.70455 41.25 -0.96316242 0.26892069 0
-75.411324 26.70455 -41.25 -0.96316242 0.26892069 0
-78.337822 16.22299 -41.25 -0.96316242 0.26892069 0
-78.337822 16.22299 41.25 -0.99074793 0.1357156 0
-78.337822 16.22299 -41.25 -0.99074793 0.1357156 0
-79.814751 5.4412231 -41.25 -0.99074793 0.1357156 0
-79.814751 5.4412231 -41.25 -1 0 0
-79.814751 -5.4412231 41.25 -0.99074769 -0.1357166 0
-79.814751 -5.4412231 -41.25 -0.99074769 -0.1357166 0
-78.337822 -16.22299 -41.25 -0.99074769 -0.1357166 0
-78.337822 -16.22299 41.25 -0.96316302 -0.2689186 0
-78.337822 -16.22299 -41.25 -0.96316302 -0.2689186 0
-75.411324 -26.70455 -41.25 -0.96316302 -0.2689186 0
-75.411324 -26.70455 41.25 -0.91775483 -0.39714739 0
-75.411324 -26.70455 -41.25 -0.91775483 -0.39714739 0
-71.089378 -36.691959 -41.25 -0.91775483 -0.39714739 0
-71.089378 -36.691959 41.25 -0.85536408 -0.51802731 0
-71.089378 -36.691959 -41.25 -0.85536408 -0.51802731 0
-65.451981 -46.00042 -41.25 -0.85536408 -0.51802731 0
-65.451981 -46.00042 41.25 -0.7771455 -0.62932098 0
-65.451981 -46.00042 -41.25 -0.7771455 -0.62932098 0
-58.603432 -54.457668 -41.25 -0.7771455 -0.62932098 0
-58.603432 -54.457668 41.25 -0.68454689 -0.72896892 0
-58.603432 -54.457668 -41.25 -0.68454689 -0.72896892 0
-50.670471 -61.907211 -41.25 -0.68454689 -0.72896892 0
-50.670471 -61.907211 41.25 -0.57928097 -0.81512803 0
-50.670471 -61.907211 -41.25 -0.57928097 -0.81512803 0
-41.799881 -68.211212 -41.25 -0.57928097 -0.81512803 0
-41.799881 -68.211212 41.25 -0.463296 -0.88620371 0
-41.799881 -68.211212 -41.25 -0.463296 -0.88620371 0
-32.155819 -73.253014 -41.25 -0.463296 -0.88620371 0
-32.155819 -73.253014 41.25 -0.33873829 -0.94088072 0
-32.155819 -73.253014 -41.25 -0.33873829 -0.94088072 0
-21.91674 -76.939308 -41.25 -0.33873829 -0.94088072 0
-21.91674 -76.939308 -41.25 -0.2079111 -0.9781478 0
-11.2721 -79.201889 41.25 -0.073238313 -0.99731451 0
-11.2721 -79.201889 -41.25 -0.073238313 -0.99731451 0
-0.41887709 -79.998901 -41.25 -0.073238313 -0.99731451 0
-0.41887709 -79.998901 41.25 0.062790208 -0.99802691 0
-0.41887709 -79.998901 -41.25 0.062790208 -0.99802691 0
10.4421 -79.31559 -41.25 0.062790208 -0.99802691 0
370.99979 -20.766661 41.25 -1.01923e-06 0 1
381.0108 10.52608 41.25 -1.01923e-06 0 1
379.13641 13.63993 41.25 -1.01923e-06 0 1
370.99979 -20.766661 41.25 -4.7969701e-07 0 1
383.21899 3.623564 41.25 -4.7969701e-07 0 1
382.38251 7.1604562 41.25 -4.7969701e-07 0 1
382.38251 7.1604562 41.25 3.1863699e-06 0 1
381.0108 10.52608 41.25 3.1863699e-06 0 1
370.99979 -20.766661 41.25 3.1863699e-06 0 1
370.99979 -20.766661 41.25 2.54774e-06 0 1
379.13641 -13.63993 41.25 2.54774e-06 0 1
381.0108 -10.52608 41.25 2.54774e-06 0 1
370.99979 -20.766661 41.25 0 0 1
374.0704 -18.822201 41.25 0 0 1
376.80441 -16.42753 41.25 0 0 1
370.99979 -20.766661 41.25 -1.3200901e-07 0 1
376.80441 16.42753 41.25 -1.3200901e-07 0 1
374.0704 18.822201 41.25 -1.3200901e-07 0 1
370.99979 -20.766661 41.25 -1.19369e-06 0 1
383.5 0 41.25 -1.19369e-06 0 1
383.21899 3.623564 41.25 -1.19369e-06 0 1
370.99979 -20.766661 41.25 -1.05674e-06 0 1
382.38251 -7.1604562 41.25 -1.05674e-06 0 1
383.21899 -3.623564 41.25 -1.05674e-06 0 1
379.13641 -13.63993 41.25 0 0 1
10.4421 -79.31559 41.25 -2.7786001e-07 0 1
-78.337822 16.22299 41.25 -2.7786001e-07 0 1
-79.814751 5.4412231 41.25 -2.7786001e-07 0 1
10.4421 -79.31559 41.25 6.49475e-07 0 1
-71.089378 36.691959 41.25 6.49475e-07 0 1
-75.411324 26.70455 41.25 6.49475e-07 0 1
379.13641 13.63993 41.25 0 0 1
376.80441 16.42753 41.25 0 0 1
381.0108 -10.52608 41.25 0 0 1
382.38251 -7.1604562 41.25 0 0 1
-79.814751 -5.4412231 41.25 -2.6639299e-07 0 1
-21.91674 -76.939308 41.25 -2.6639299e-07 0 1
-11.2721 -79.201889 41.25 -2.6639299e-07 0 1
-79.814751 -5.4412231 41.25 -5.9014701e-07 0 1
-41.799881 -68.211212 41.25 -5.9014701e-07 0 1
-32.155819 -73.253014 41.25 -5.9014701e-07 0 1
-75.411324 -26.70455 41.25 -6.4279101e-07 0 1
-58.603432 -54.457668 41.25 -6.4279101e-07 0 1
-50.670471 -61.907211 41.25 -6.4279101e-07 0 1
-58.603432 -54.457668 41.25 2.5473801e-06 0 1
-75.411324 -26.70455 41.25 2.5473801e-06 0 1
-71.089378 -36.691959 41.25 2.5473801e-06 0 1
-75.411324 26.70455 41.25 -4.0348999e-07 0 1
-78.337822 16.22299 41.25 -4.0348999e-07 0 1
10.4421 -79.31559 41.25 -4.0348999e-07 0 1
10.4421 -79.31559 41.25 -4.0687701e-07 0 1
-58.603432 54.457668 41.25 -4.0687701e-07 0 1
-65.451981 46.00042 41.25 -4.0687701e-07 0 1
10.4421 -79.31559 41.25 -7.2395801e-07 0 1
-32.155819 73.253014 41.25 -7.2395801e-07 0 1
-41.799881 68.211212 41.25 -7.2395801e-07 0 1
383.21899 -3.623564 41.25 0 0 1
383.5 0 41.25 0 0 1
-32.155819 -73.253014 41.25 9.4145503e-07 0 1
-21.91674 -76.939308 41.25 9.4145503e-07 0 1
-79.814751 -5.4412231 41.25 9.4145503e-07 0 1
-71.089378 -36.691959 41.25 0 0 1
-65.451981 -46.00042 41.25 0 0 1
-58.603432 -54.457668 41.25 0 0 1
-41.799881 -68.211212 41.25 5.77327e-07 0 1
-79.814751 -5.4412231 41.25 5.77327e-07 0 1
-78.337822 -16.22299 41.25 5.77327e-07 0 1
-65.451981 46.00042 41.25 0 0 1
-71.089378 36.691959 41.25 0 0 1
10.4421 -79.31559 41.25 0 0 1
-41.799881 68.211212 41.25 5.9619799e-07 0 1
-50.670471 61.907211 41.25 5.9619799e-07 0 1
10.4421 -79.31559 41.25 5.9619799e-07 0 1
10.4421 -79.31559 41.25 0 0 1
-11.2721 79.201889 41.25 0 0 1
-21.91674 76.939308 41.25 0 0 1
374.0704 18.822201 41.25 0 0 1
370.99979 20.766661 41.25 0 0 1
-11.2721 -79.201889 41.25 0 0 1
-0.41887709 -79.998901 41.25 0 0 1
-79.814751 -5.4412231 41.25 0 0 1
-78.337822 -16.22299 41.25 0 0 1
-75.411324 -26.70455 41.25 0 0 1
-41.799881 -68.211212 41.25 0 0 1
-50.670471 61.907211 41.25 0 0 1
-58.603432 54.457668 41.25 0 0 1
10.4421 -79.31559 41.25 3.3806299e-07 0 1
-0.41887709 79.998901 41.25 3.3806299e-07 0 1
-11.2721 79.201889 41.25 3.3806299e-07 0 1
342.306 32.832642 41.25 0 0 1
311.92841 -39.624161 41.25 0 0 1
327.26849 -36.905151 41.25 0 0 1
356.92169 27.43889 41.25 4.74014e-07 0 1
356.92169 -27.43889 41.25 4.74014e-07 0 1
370.99979 -20.766661 41.25 4.74014e-07 0 1
10.4421 79.31559 41.25 0 0 1
311.92841 -39.624161 41.25 0 0 1
-50.670471 -61.907211 41.25 0 0 1
-21.91674 76.939308 41.25 5.68036e-07 0 1
-32.155819 73.253014 41.25 5.68036e-07 0 1
10.4421 -79.31559 41.25 5.68036e-07 0 1
327.26849 -36.905151 41.25 3.32805e-07 0 1
356.92169 27.43889 41.25 3.32805e-07 0 1
342.306 32.832642 41.25 3.32805e-07 0 1
356.92169 27.43889 41.25 -1.52192e-07 0 1
342.306 -32.832642 41.25 -1.52192e-07 0 1
356.92169 -27.43889 41.25 -1.52192e-07 0 1
311.92841 39.624161 41.25 0 0 1
-79.814751 5.4412231 41.25 0 0 1
342.306 32.832642 41.25 -4.02447e-07 0 1
327.26849 36.905151 41.25 -4.02447e-07 0 1
311.92841 -39.624161 41.25 -4.02447e-07 0 1
356.92169 27.43889 41.25 -3.24345e-07 0 1
327.26849 -36.905151 41.25 -3.24345e-07 0 1
342.306 -32.832642 41.25 -3.24345e-07 0 1
356.92169 27.43889 41.25 0 0 1
327.26849 36.905151 41.25 0 0 1
-0.41887709 79.998901 41.25 0 0 1
370.99979 -20.766661 25 0.42827749 -0.9036473 0
370.99979 -20.766661 41.25 0.42827749 -0.9036473 0
356.92169 -27.43889 41.25 0.42827749 -0.9036473 0
356.92169 -27.43889 25 0.34621391 -0.93815571 0
356.92169 -27.43889 41.25 0.34621391 -0.93815571 0
342.306 -32.832642 41.25 0.34621391 -0.93815571 0
342.306 -32.832642 25 0.2614072 -0.96522868 0
342.306 -32.832642 41.25 0.2614072 -0.96522868 0
327.26849 -36.905151 41.25 0.2614072 -0.96522868 0
327.26849 -36.905151 25 0.174528 -0.98465228 0
327.26849 -36.905151 41.25 0.174528 -0.98465228 0
311.92841 -39.624161 41.25 0.174528 -0.98465228 0
311.92841 -39.624161 25 0.174528 -0.98465228 0
327.26849 -36.905151 41.25 0.2614072 -0.96522862 0
327.26849 -36.905151 25 0.2614072 -0.96522862 0
342.306 -32.832642 25 0.2614072 -0.96522862 0
342.306 -32.832642 41.25 0.3462151 -0.93815517 0
342.306 -32.832642 25 0.3462151 -0.93815517 0
356.92169 -27.43889 25 0.3462151 -0.93815517 0
356.92169 -27.43889 41.25 0.42827901 -0.90364671 0
356.92169 -27.43889 25 0.42827901 -0.90364671 0
370.99979 -20.766661 25 0.42827901 -0.90364671 0
370.99979 20.766661 25 0.53500891 0.84484643 0
370.99979 20.766661 41.25 0.53500891 0.84484643 0
374.0704 18.822201 41.25 0.53500891 0.84484643 0
374.0704 18.822201 25 0.65887982 0.75224841 0
374.0704 18.822201 41.25 0.65887982 0.75224841 0
376.80441 16.42753 41.25 0.65887982 0.75224841 0
376.80441 16.42753 25 0.76698941 0.6416598 0
376.80441 16.42753 41.25 0.76698941 0.6416598 0
379.13641 13.63993 41.25 0.76698941 0.6416598 0
379.13641 13.63993 25 0.85676032 0.515715 0
379.13641 13.63993 41.25 0.85676032 0.515715 0
381.0108 10.52608 41.25 0.85676032 0.515715 0
381.0108 10.52608 25 0.92603117 0.3774468 0
381.0108 10.52608 41.25 0.92603117 0.3774468 0
382.38251 7.1604562 41.25 0.92603117 0.3774468 0
382.38251 7.1604562 25 0.97315848 0.23013631 0
382.38251 7.1604562 41.25 0.97315848 0.23013631 0
383.21899 3.623564 41.25 0.97315848 0.23013631 0
383.21899 3.623564 25 0.99700522 0.077334881 0
383.21899 3.623564 41.25 0.99700522 0.077334881 0
383.5 0 41.25 0.99700522 0.077334881 0
383.5 0 25 0.99700648 -0.077318422 0
383.5 0 41.25 0.99700648 -0.077318422 0
383.21899 -3.623564 41.25 0.99700648 -0.077318422 0
383.21899 -3.623564 25 0.97315848 -0.23013631 0
383.21899 -3.623564 41.25 0.97315848 -0.23013631 0
382.38251 -7.1604562 41.25 0.97315848 -0.23013631 0
382.38251 -7.1604562 25 0.92603707 -0.3774327 0
382.38251 -7.1604562 41.25 0.92603707 -0.3774327 0
381.0108 -10.52608 41.25 0.92603707 -0.3774327 0
381.0108 -10.52608 25 0.85676032 -0.515715 0
381.0108 -10.52608 41.25 0.85676032 -0.515715 0
379.13641 -13.63993 41.25 0.85676032 -0.515715 0
379.13641 -13.63993 25 0.76699752 -0.64165002 0
379.13641 -13.63993 41.25 0.76699752 -0.64165002 0
376.80441 -16.42753 41.25 0.76699752 -0.64165002 0
376.80441 -16.42753 25 0.65887982 -0.75224841 0
376.80441 -16.42753 41.25 0.65887982 -0.75224841 0
374.0704 -18.822201 41.25 0.65887982 -0.75224841 0
374.0704 -18.822201 25 0.53501642 -0.84484172 0
374.0704 -18.822201 41.25 0.53501642 -0.84484172 0
370.99979 -20.766661 41.25 0.53501642 -0.84484172 0
370.99979 -20.766661 41.25 0.53500891 -0.84484643 0
370.99979 -20.766661 25 0.53500891 -0.84484643 0
374.0704 -18.822201 25 0.53500891 -0.84484643 0
374.0704 -18.822201 41.25 0.65887988 -0.75224823 0
374.0704 -18.822201 25 0.65887988 -0.75224823 0
376.80441 -16.42753 25 0.65887988 -0.75224823 0
376.80441 -16.42753 41.25 0.76698941 -0.6416598 0
376.80441 -16.42753 25 0.76698941 -0.6416598 0
379.13641 -13.63993 25 0.76698941 -0.6416598 0
379.13641 -13.63993 25 0.85676032 -0.515715 0
381.0108 -10.52608 41.25 0.92603117 -0.3774468 0
381.0108 -10.52608 25 0.92603117 -0.3774468 0
382.38251 -7.1604562 25 0.92603117 -0.3774468 0
382.38251 -7.1604562 25 0.97315848 -0.23013631 0
383.21899 -3.623564 41.25 0.99700528 -0.077334881 0
383.21899 -3.623564 25 0.99700528 -0.077334881 0
383.5 0 25 0.99700528 -0.077334881 0
383.5 0 41.25 0.99700648 0.077318482 0
383.5 0 25 0.99700648 0.077318482 0
383.21899 3.623564 25 0.99700648 0.077318482 0
383.21899 3.623564 25 0.97315848 0.23013631 0
382.38251 7.1604562 41.25 0.92603707 0.3774327 0
382.38251 7.1604562 25 0.92603707 0.3774327 0
381.0108 10.52608 25 0.92603707 0.3774327 0
381.0108 10.52608 25 0.85676032 0.515715 0
379.13641 13.63993 41.25 0.76699752 0.64165002 0
379.13641 13.63993 25 0.76699752 0.64165002 0
376.80441 16.42753 25 0.76699752 0.64165002 0
376.80441 16.42753 41.25 0.65887988 0.75224823 0
376.80441 16.42753 25 0.65887988 0.75224823 0
374.0704 18.822201 25 0.65887988 0.75224823 0
374.0704 18.822201 41.25 0.53501642 0.84484172 0
374.0704 18.822201 25 0.53501642 0.84484172 0
370.99979 20.766661 25 0.53501642 0.84484172 0
327.26849 36.905151 -41.25 0.2614072 0.96522862 0
327.26849 36.905151 -25 0.2614072 0.96522862 0
342.306 32.832642 -25 0.2614072 0.96522862 0
342.306 32.832642 -41.25 0.3462151 0.93815517 0
342.306 32.832642 -25 0.3462151 0.93815517 0
356.92169 27.43889 -25 0.3462151 0.93815517 0
356.92169 27.43889 -41.25 0.42827901 0.90364671 0
356.92169 27.43889 -25 0.42827901 0.90364671 0
370.99979 20.766661 -25 0.42827901 0.90364671 0
356.92169 27.43889 25 0.42827901 0.90364671 0
356.92169 27.43889 41.25 0.42827901 0.90364671 0
370.99979 20.766661 41.25 0.42827901 0.90364671 0
342.306 32.832642 25 0.3462151 0.93815517 0
342.306 32.832642 41.25 0.3462151 0.93815517 0
356.92169 27.43889 41.25 0.3462151 0.93815517 0
327.26849 36.905151 25 0.2614072 0.96522868 0
327.26849 36.905151 41.25 0.2614072 0.96522868 0
342.306 32.832642 41.25 0.2614072 0.96522868 0
327.26849 36.905151 -41.25 0.1745248 0.98463392 -0.0061041708
311.92841 39.624161 -41.25 0.1745248 0.98463392 -0.0061041708
314.59659 39.251968 -25 0.1745248 0.98463392 -0.0061041708
311.92841 39.624161 -41.25 0.13815621 0.99041051 0
311.92841 39.624161 41.25 0.13815621 0.99041051 0
314.59659 39.251968 25 0.13815621 0.99041051 0
314.59659 39.251968 25 0.1381508 0.99041128 0
314.59659 39.251968 -25 0.1381508 0.99041128 0
311.92841 39.624161 -41.25 0.1381508 0.99041128 0
327.26849 36.905151 41.25 0.1821014 0.98327982 0
327.26849 36.905151 25 0.1821014 0.98327982 0
314.59659 39.251968 25 0.1821014 0.98327982 0
314.59659 39.251968 25 0.1745248 0.98463392 0.00610429
311.92841 39.624161 41.25 0.1745248 0.98463392 0.00610429
327.26849 36.905151 41.25 0.1745248 0.98463392 0.00610429
314.59659 39.251968 -25 0.1821014 0.98327982 0
327.26849 36.905151 -25 0.1821014 0.98327982 0
327.26849 36.905151 -41.25 0.1821014 0.98327982 0
342.306 32.832642 41.25 0.2614072 0.96522862 0
342.306 32.832642 25 0.2614072 0.96522862 0
327.26849 36.905151 25 0.2614072 0.96522862 0
356.92169 27.43889 41.25 0.34621391 0.93815571 0
356.92169 27.43889 25 0.34621391 0.93815571 0
342.306 32.832642 25 0.34621391 0.93815571 0
370.99979 20.766661 41.25 0.42827749 0.9036473 0
370.99979 20.766661 25 0.42827749 0.9036473 0
356.92169 27.43889 25 0.42827749 0.9036473 0
370.99979 20.766661 -25 0.42827749 0.9036473 0
370.99979 20.766661 -41.25 0.42827749 0.9036473 0
356.92169 27.43889 -41.25 0.42827749 0.9036473 0
356.92169 27.43889 -25 0.34621391 0.93815571 0
356.92169 27.43889 -41.25 0.34621391 0.93815571 0
342.306 32.832642 -41.25 0.34621391 0.93815571 0
342.306 32.832642 -25 0.2614072 0.96522868 0
342.306 32.832642 -41.25 0.2614072 0.96522868 0
327.26849 36.905151 -41.25 0.2614072 0.96522868 0
311.92841 -39.624161 41.25 0.1305262 -0.99144483 3.95255e-07
10.4421 -79.31559 41.25 0.1305262 -0.99144483 3.95255e-07
207.2748 -53.402061 25 0.1305262 -0.99144483 3.95255e-07
10.4421 -79.31559 41.25 0.1305262 -0.99144489 0
10.4421 -79.31559 -41.25 0.1305262 -0.99144489 0
207.2748 -53.402061 -25 0.1305262 -0.99144489 0
207.2748 -53.402061 -25 0.1305262 -0.99144483 0
207.2748 -53.402061 25 0.1305262 -0.99144483 0
10.4421 -79.31559 41.25 0.1305262 -0.99144483 0
311.92841 -39.624161 -41.25 0.1305261 -0.99144489 0
311.92841 -39.624161 -25 0.1305261 -0.99144489 0
207.2748 -53.402061 -25 0.1305261 -0.99144489 0
207.2748 -53.402061 -25 0.1305262 -0.99144483 -7.9051e-07
10.4421 -79.31559 -41.25 0.1305262 -0.99144483 -7.9051e-07
311.92841 -39.624161 -41.25 0.1305262 -0.99144483 -7.9051e-07
207.2748 -53.402061 25 0.1305261 -0.99144489 0
311.92841 -39.624161 25 0.1305261 -0.99144489 0
311.92841 -39.624161 41.25 0.1305261 -0.99144489 0
382.38251 7.1604562 -25 -7.5519301e-06 0 1
383.21899 -3.623564 -25 -7.5519301e-06 0 1
383.5 0 -25 -7.5519301e-06 0 1
370.99979 -20.766661 -25 0 0 1
379.13641 13.63993 -25 0 0 1
376.80441 16.42753 -25 0 0 1
382.38251 7.1604562 -25 5.09544e-06 0 1
382.38251 -7.1604562 -25 5.09544e-06 0 1
383.21899 -3.623564 -25 5.09544e-06 0 1
382.38251 7.1604562 -25 -1.05675e-06 0 1
379.13641 -13.63993 -25 -1.05675e-06 0 1
381.0108 -10.52608 -25 -1.05675e-06 0 1
382.38251 7.1604562 -25 7.1955498e-07 0 1
370.99979 -20.766661 -25 7.1955498e-07 0 1
374.0704 -18.822201 -25 7.1955498e-07 0 1
376.80441 16.42753 -25 -1.05607e-06 0 1
374.0704 18.822201 -25 -1.05607e-06 0 1
370.99979 -20.766661 -25 -1.05607e-06 0 1
370.99979 -20.766661 -25 -3.98297e-07 0 1
382.38251 7.1604562 -25 -3.98297e-07 0 1
381.0108 10.52608 -25 -3.98297e-07 0 1
381.0108 -10.52608 -25 -3.10685e-06 0 1
382.38251 -7.1604562 -25 -3.10685e-06 0 1
382.38251 7.1604562 -25 -3.10685e-06 0 1
374.0704 -18.822201 -25 0 0 1
376.80441 -16.42753 -25 0 0 1
382.38251 7.1604562 -25 0 0 1
381.0108 10.52608 -25 0 0 1
379.13641 -13.63993 -25 0 0 1
383.5 0 -25 7.4913801e-06 0 1
383.21899 3.623564 -25 7.4913801e-06 0 1
382.38251 7.1604562 -25 7.4913801e-06 0 1
374.0704 18.822201 -25 1.9143899e-06 0 1
370.99979 20.766661 -25 1.9143899e-06 0 1
370.99979 -20.766661 -25 1.9143899e-06 0 1
356.92169 27.43889 -25 0 0 1
356.92169 -27.43889 -25 0 0 1
342.306 32.832642 -25 -1.4830199e-07 0 1
311.92841 -39.624161 -25 -1.4830199e-07 0 1
327.26849 -36.905151 -25 -1.4830199e-07 0 1
342.306 -32.832642 -25 0 0 1
327.26849 -36.905151 -25 0 0 1
342.306 32.832642 -25 0 0 1
356.92169 27.43889 -25 -1.26134e-07 0 1
327.26849 -36.905151 -25 -1.26134e-07 0 1
342.306 -32.832642 -25 -1.26134e-07 0 1
370.99979 20.766661 -25 0 0 1
342.306 32.832642 -25 4.02447e-07 0 1
327.26849 36.905151 -25 4.02447e-07 0 1
311.92841 -39.624161 -25 4.02447e-07 0 1
314.59659 39.251968 -25 0 0 1
196.2711 -36.129681 -25 0 0 1
207.2748 -53.402061 -25 0 0 1
207.2748 -53.402061 -25 0 0 1
311.92841 -39.624161 -25 0 0 1
314.59659 39.251968 -25 0 0 1
327.26849 36.905151 -25 0 0 1
376.80441 -16.42753 25 -5.0346198e-06 0 -1
382.38251 -7.1604562 25 -5.0346198e-06 0 -1
381.0108 -10.52608 25 -5.0346198e-06 0 -1
381.0108 -10.52608 25 0 0 -1
379.13641 -13.63993 25 0 0 -1
376.80441 -16.42753 25 0 0 -1
374.0704 -18.822201 25 -5.2836498e-07 0 -1
383.5 0 25 -5.2836498e-07 0 -1
383.21899 -3.623564 25 -5.2836498e-07 0 -1
370.99979 -20.766661 25 -3.98297e-07 0 -1
381.0108 10.52608 25 -3.98297e-07 0 -1
382.38251 7.1604562 25 -3.98297e-07 0 -1
383.21899 -3.623564 25 0 0 -1
382.38251 -7.1604562 25 0 0 -1
374.0704 -18.822201 25 0 0 -1
382.38251 7.1604562 25 0 0 -1
383.21899 3.623564 25 0 0 -1
370.99979 -20.766661 25 0 0 -1
376.80441 16.42753 25 0 0 -1
379.13641 13.63993 25 0 0 -1
381.0108 10.52608 25 0 0 -1
383.5 0 25 0 0 -1
370.99979 -20.766661 25 1.31614e-06 0 -1
370.99979 20.766661 25 1.31614e-06 0 -1
374.0704 18.822201 25 1.31614e-06 0 -1
374.0704 18.822201 25 -1.05607e-06 0 -1
376.80441 16.42753 25 -1.05607e-06 0 -1
370.99979 -20.766661 25 -1.05607e-06 0 -1
356.92169 27.43889 25 0 0 -1
370.99979 20.766661 25 0 0 -1
356.92169 -27.43889 25 0 0 -1
342.306 32.832642 25 0 0 -1
327.26849 -36.905151 25 0 0 -1
342.306 -32.832642 25 0 0 -1
311.92841 -39.624161 25 3.1441201e-07 0 -1
327.26849 36.905151 25 3.1441201e-07 0 -1
342.306 32.832642 25 3.1441201e-07 0 -1
327.26849 -36.905151 25 -2.37284e-07 0 -1
311.92841 -39.624161 25 -2.37284e-07 0 -1
342.306 32.832642 25 -2.37284e-07 0 -1
314.59659 39.251968 25 0 0 -1
311.92841 -39.624161 25 0 0 -1
207.2748 -53.402061 25 0 0 -1
311.92841 -39.624161 25 0 0 -1
314.59659 39.251968 25 0 0 -1
327.26849 36.905151 25 0 0 -1
207.2748 -53.402061 25 0 0 -1
196.2711 -36.129681 25 0 0 -1
314.59659 39.251968 25 0 0 -1
196.2711 -36.129681 25 0.53729951 -0.84339148 0
196.2711 -36.129681 -25 0.53729951 -0.84339148 0
314.59659 39.251968 -25 0.53729951 -0.84339148 0
314.59659 39.251968 25 0.53729951 -0.84339148 0
207.2748 -53.402061 -25 0.84339088 0.53730053 0
196.2711 -36.129681 -25 0.84339088 0.53730053 0
196.2711 -36.129681 25 0.84339088 0.53730053 0
196.2711 -36.129681 25 0.84339178 0.53729922 0
207.2748 -53.402061 25 0.84339178 0.53729922 0
207.2748 -53.402061 -25 0.84339178 0.53729922 0
3 0 1 2
3 3 4 5
3 6 7 8
3 9 10 11
3 11 12 9
3 13 14 15
3 16 17 18
3 19 20 21
3 22 23 24
3 25 26 27
3 28 29 30
3 31 32 33
3 34 35 36
3 37 38 39
3 40 41 42
3 43 44 45
3 46 47 48
3 49 50 51
3 52 53 54
3 55 56 57
3 58 59 60
3 61 62 63
3 64 65 66
3 67 68 69
3 70 71 72
3 54 73 52
3 74 75 76
3 48 77 46
3 78 79 80
3 81 82 83
3 39 84 37
3 85 86 87
3 33 88 31
3 89 90 91
3 92 93 94
3 95 96 97
3 98 99 100
3 101 102 103
3 104 105 106
3 107 108 109
3 110 111 112
3 112 113 114
3 115 116 117
3 118 98 119
3 114 120 112
3 121 122 123
3 124 125 126
3 127 128 129
3 130 131 132
3 133 134 135
3 136 137 138
3 139 140 141
3 142 143 144
3 100 119 98
3 145 113 112
3 146 147 148
3 149 150 151
3 152 153 154
3 155 156 157
3 158 136 156
3 159 160 161
3 162 163 164
3 111 165 112
3 166 167 168
3 169 170 171
3 138 156 136
3 172 173 174
3 175 176 177
3 178 179 180
3 181 182 183
3 184 185 186
3 187 188 189
3 190 191 192
3 119 112 165
3 193 194 195
3 157 174 155
3 196 197 198
3 199 200 201
3 202 203 204
3 189 168 187
3 205 189 206
3 207 208 209
3 210 211 212
3 213 214 215
3 216 217 218
3 219 220 221
3 222 223 224
3 225 226 227
3 228 229 230
3 231 232 233
3 234 235 236
3 237 238 239
3 240 241 242
3 243 244 245
3 246 247 248
3 249 250 251
3 252 253 254
3 255 256 257
3 258 259 260
3 261 262 263
3 264 265 266
3 267 268 269
3 270 271 272
3 273 274 275
3 276 277 278
3 279 280 281
3 282 283 284
3 285 286 287
3 288 289 290
3 291 292 293
3 294 295 296
3 297 298 299
3 287 300 285
3 301 302 303
3 304 305 306
3 307 308 309
3 310 311 312
3 313 314 315
3 316 317 318
3 319 320 321
3 322 323 324
3 325 326 327
3 257 328 255
3 329 330 331
3 332 333 334
3 335 336 337
3 338 339 340
3 341 342 343
3 344 345 346
3 347 348 349
3 350 351 352
3 353 354 355
3 227 356 225
3 357 358 359
3 360 361 362
3 363 364 365
3 366 367 368
3 369 370 371
3 372 373 374
3 375 376 377
3 378 379 380
3 381 382 383
3 384 385 386
3 377 387 375
3 388 389 390
3 391 392 393
3 394 395 375
3 396 397 375
3 398 399 400
3 401 402 403
3 404 405 406
3 407 408 409
3 410 411 412
3 413 414 415
3 416 417 418
3 419 420 375
3 421 422 423
3 424 425 426
3 427 428 429
3 430 431 432
3 433 434 435
3 436 437 438
3 439 440 375
3 441 442 443
3 444 445 446
3 447 448 432
3 449 450 451
3 452 453 454
3 455 456 457
3 458 432 459
3 460 446 445
3 461 462 463
3 464 465 466
3 467 468 469
3 459 470 458
3 471 443 432
3 472 473 474
3 475 476 477
3 442 432 443
3 440 478 375
3 479 470 459
3 458 480 432
3 481 482 483
3 484 485 486
3 487 488 489
3 490 491 492
3 492 493 490
3 494 495 496
3 497 498 499
3 500 501 502
3 503 504 505
3 506 507 508
3 509 510 511
3 512 513 514
3 515 516 517
3 518 519 520
3 521 522 523
3 524 525 526
3 527 528 529
3 530 531 532
3 533 534 535
3 536 537 538
3 539 540 541
3 542 543 544
3 545 546 547
3 548 549 550
3 551 552 553
3 535 554 533
3 555 556 557
3 529 558 527
3 559 560 561
3 562 563 564
3 520 565 518
3 566 567 568
3 514 569 512
3 570 571 572
3 573 574 575
3 576 577 578
3 579 580 581
3 582 583 584
3 585 586 587
3 588 589 590
3 591 592 593
3 594 595 596
3 597 598 599
3 600 601 602
3 603 604 605
3 606 607 608
3 609 610 611
3 612 613 614
3 615 616 617
3 618 619 620
3 621 622 623
3 624 625 626
3 627 628 629
3 630 631 632
3 633 634 635
3 636 637 638
3 639 640 641
3 642 643 644
3 645 646 647
3 648 649 650
3 651 652 653
3 654 655 656
3 657 658 659
3 660 661 662
3 663 664 665
3 666 667 668
3 669 670 671
3 672 673 674
3 675 676 677
3 678 655 654
3 676 679 677
3 680 681 682
3 683 684 685
3 686 687 654
3 688 689 690
3 686 691 687
3 692 686 693
3 694 695 696
3 697 686 654
3 698 699 700
3 701 702 703
3 704 705 706
3 707 706 705
3 708 709 710
3 711 712 713
3 714 715 716
3 717 718 719
3 720 721 722
3 723 724 725
3 725 726 727
3 713 722 721
3 727 728 725
3 724 729 725
3 730 731 732
3 733 734 735
3 725 736 737
3 722 725 729
3 725 738 736
3 739 736 740
3 738 741 736
3 742 743 744
3 745 746 747
3 748 749 750
3 751 752 753
3 741 740 736
3 754 755 756
3 757 758 759
3 759 760 757
3 761 762 763
3 764 765 766
