ply
format ascii 1.0
element vertex 24
property float x
property float y
property float z
element face 12
property list uchar int vertex_indices
end_header
39.370079 39.370079 0
0 0 0
0 39.370079 0
39.370079 0 0
0 39.370079 39.370079
39.370079 39.370079 0
0 39.370079 0
39.370079 39.370079 39.370079
39.370079 39.370079 0
39.370079 0 39.370079
39.370079 0 0
39.370079 39.370079 39.370079
39.370079 0 39.370079
0 39.370079 39.370079
0 0 39.370079
39.370079 39.370079 39.370079
39.370079 0 39.370079
0 0 0
39.370079 0 0
0 0 39.370079
0 39.370079 39.370079
0 0 0
0 0 39.370079
0 39.370079 0
3 0 1 2
3 1 0 3
3 4 5 6
3 5 4 7
3 8 9 10
3 9 8 11
3 12 13 14
3 13 12 15
3 0 1 2
3 1 0 3
3 0 1 2
3 1 0 3
